<svg xmlns="http://www.w3.org/2000/svg" viewBox="0 0 24 24" aria-hidden="true">
  <defs>
    <linearGradient id="diaper-wet-gradient" x1="0" y1="0" x2="0" y2="1">
      <stop offset="0" stop-color="#38bdf8" />
      <stop offset="1" stop-color="#0ea5e9" />
    </linearGradient>
  </defs>
  <path
    fill="url(#diaper-wet-gradient)"
    d="M12 2.5c-.3 0-.6.14-.8.37C9.1 4.98 6 9.38 6 12.25 6 15.96 8.69 18.5 12 18.5s6-2.54 6-6.25c0-2.87-3.1-7.27-5.2-9.38A1.06 1.06 0 0 0 12 2.5zm0 13c-2.02 0-3.5-1.42-3.5-3.25 0-.64.17-1.33.51-2.08.19-.43.69-.62 1.12-.43.43.19.62.69.43 1.12-.26.59-.39 1.1-.39 1.39 0 1.02.74 1.75 1.83 1.75.52 0 1.06-.16 1.57-.45.41-.24.94-.1 1.18.31.24.41.1.94-.31 1.18-.75.44-1.54.71-2.44.71z"
  />
</svg>

